solid modelcanvas_octahedron
  facet normal 0.577350 0.577350 0.577350
    outer loop
      vertex 1 0 0
      vertex 0 1 0
      vertex 0 0 1
    endloop
  endfacet
  facet normal -0.577350 0.577350 0.577350
    outer loop
      vertex 0 1 0
      vertex -1 0 0
      vertex 0 0 1
    endloop
  endfacet
  facet normal -0.577350 -0.577350 0.577350
    outer loop
      vertex -1 0 0
      vertex 0 -1 0
      vertex 0 0 1
    endloop
  endfacet
  facet normal 0.577350 -0.577350 0.577350
    outer loop
      vertex 0 -1 0
      vertex 1 0 0
      vertex 0 0 1
    endloop
  endfacet
  facet normal 0.577350 0.577350 -0.577350
    outer loop
      vertex 0 1 0
      vertex 1 0 0
      vertex 0 0 -1
    endloop
  endfacet
  facet normal -0.577350 0.577350 -0.577350
    outer loop
      vertex -1 0 0
      vertex 0 1 0
      vertex 0 0 -1
    endloop
  endfacet
  facet normal -0.577350 -0.577350 -0.577350
    outer loop
      vertex 0 -1 0
      vertex -1 0 0
      vertex 0 0 -1
    endloop
  endfacet
  facet normal 0.577350 -0.577350 -0.577350
    outer loop
      vertex 1 0 0
      vertex 0 -1 0
      vertex 0 0 -1
    endloop
  endfacet
endsolid modelcanvas_octahedron
